<?xml version="1.0" encoding="utf-8"?>
<!-- Generator: Adobe Illustrator 28.2.0, SVG Export Plug-In . SVG Version: 6.00 Build 0)  -->
<svg version="1.1" id="Layer_1" xmlns="http://www.w3.org/2000/svg" xmlns:xlink="http://www.w3.org/1999/xlink" x="0px" y="0px"
	 viewBox="0 0 80 64" style="enable-background:new 0 0 80 64;" xml:space="preserve">
<style type="text/css">
	.st0{fill:#ECEDEF;}
	.st1{fill:#231F20;}
	.st2{fill:#F79410;}
	.st3{fill:#FF5F00;}
	.st4{fill:#EB001B;}
	.st5{fill:#F79E1B;}
</style>
<rect x="0.1" y="0.1" class="st0" width="79.9" height="63.8"/>
<g id="Mastercard-logo">
	<g id="Group_4833">
		<g id="Group_4829">
			<path id="Path_2340" class="st1" d="M68.7,54.6L68.7,54.6l0.2,0.1L68.7,54.6L68.7,54.6z M68.8,54.5L68.8,54.5L68.8,54.5l0.1,0.2
				h-0.1L69,55h-0.1l-0.2-0.2V55h-0.1v-0.5H68.8z M68.8,55.1c0.1,0,0.1,0,0.2,0V55l0.1-0.1c0-0.1,0-0.2,0-0.3c0,0,0-0.1-0.1-0.1
				l-0.1-0.1h-0.3c0,0-0.1,0-0.1,0.1l-0.1,0.1c0,0.1,0,0.2,0,0.3c0,0,0,0.1,0.1,0.1l0.1,0.1C68.6,55.1,68.7,55.1,68.8,55.1
				 M68.7,54.2c0.1,0,0.1,0,0.2,0s0.1,0.1,0.2,0.1c0,0.1,0.1,0.1,0.1,0.2c0,0.1,0,0.1,0,0.2c0,0.1,0,0.1,0,0.2
				c0,0.1-0.1,0.1-0.1,0.2c0,0-0.1,0.1-0.2,0.1s-0.1,0-0.2,0s-0.1,0-0.2,0s-0.1-0.1-0.1-0.1s-0.1-0.1-0.1-0.2c0-0.1,0-0.1,0-0.2
				c0-0.1,0-0.1,0-0.2c0-0.1,0.1-0.1,0.1-0.2C68.4,54.3,68.5,54.2,68.7,54.2L68.7,54.2 M23,52.5c0-0.8,0.6-1.5,1.4-1.5h0.1
				c0.8,0,1.5,0.6,1.5,1.4v0.1c0.1,0.8-0.6,1.5-1.4,1.6h-0.1c-0.8,0-1.5-0.6-1.5-1.4l0,0C23,52.6,23,52.6,23,52.5 M27,52.5V50h-1.1
				v0.6c-0.4-0.5-1-0.7-1.6-0.7c-1.4,0-2.5,1.1-2.5,2.5v0.1c-0.1,1.4,1,2.5,2.3,2.6l0,0h0.1c0.6,0,1.2-0.2,1.6-0.7V55H27V52.5z
				 M63,52.5c0-0.8,0.6-1.5,1.4-1.5h0.1c0.8,0,1.5,0.6,1.5,1.4l0,0v0.1c0.1,0.8-0.6,1.5-1.4,1.6h-0.1c-0.8,0-1.5-0.6-1.5-1.4l0,0
				C63,52.7,63,52.6,63,52.5 M67,52.5v-4.4h-1.1v2.6c-0.4-0.5-1-0.7-1.6-0.7c-1.4,0-2.5,1.1-2.5,2.5v0.1c-0.1,1.4,1,2.5,2.3,2.6h0.1
				c0.6,0,1.2-0.2,1.6-0.7V55H67V52.5z M40.2,50.9c0.7,0,1.2,0.5,1.2,1.2h-2.5C38.9,51.4,39.5,50.9,40.2,50.9L40.2,50.9 M40.2,49.9
				c-1.3,0-2.4,1-2.5,2.3l0,0c0,0.1,0,0.2,0,0.2c-0.1,1.3,0.9,2.5,2.2,2.6l0,0h0.3c0.7,0,1.4-0.2,2-0.7l-0.5-0.8
				c-0.4,0.3-0.9,0.5-1.4,0.5c-0.7,0.1-1.4-0.5-1.5-1.2h3.6c0-0.1,0-0.3,0-0.4C42.5,51.1,41.6,50,40.2,49.9L40.2,49.9 M53.1,52.6
				c-0.1-0.8,0.5-1.5,1.4-1.6h0.1c0.8,0,1.5,0.6,1.5,1.5l0,0v0.1c0.1,0.8-0.6,1.5-1.4,1.6h-0.1c-0.8,0-1.5-0.6-1.5-1.4l0,0V52.6
				 M57.1,52.6v-2.5H56v0.6c-0.4-0.5-1-0.7-1.5-0.7c-1.3,0-2.4,1.1-2.5,2.4v0.1c-0.1,1.4,1,2.5,2.3,2.6l0,0h0.1
				c0.6,0,1.2-0.3,1.5-0.7V55H57L57.1,52.6z M47.1,52.6c-0.1,1.4,1,2.5,2.4,2.6l0,0h0.2c0.6,0,1.3-0.2,1.8-0.6L51,53.7
				c-0.4,0.3-0.8,0.4-1.3,0.4c-0.8,0-1.5-0.6-1.5-1.4l0,0v-0.1c-0.1-0.8,0.6-1.5,1.3-1.5h0.1c0.5,0,0.9,0.2,1.3,0.4l0.5-0.9
				c-0.5-0.4-1.1-0.6-1.8-0.6c-1.4-0.1-2.5,1-2.6,2.3L47.1,52.6 M60.8,50c-0.5,0-1,0.3-1.3,0.7v-0.6h-1V55h1.1v-2.8
				c0-0.8,0.3-1.3,1-1.3c0.2,0,0.5,0,0.7,0.1l0.3-1C61.3,50,61,50,60.8,50 M32.2,50.5c-0.6-0.4-1.3-0.5-2-0.5c-1.2,0-2,0.6-2,1.6
				c0,0.8,0.6,1.3,1.7,1.4l0.5,0.1c0.6,0.1,0.9,0.2,0.9,0.5s-0.4,0.6-1.1,0.6c-0.6,0-1.2-0.2-1.6-0.5L28,54.5
				c0.6,0.4,1.4,0.6,2.1,0.6c1.4,0,2.2-0.7,2.2-1.6s-0.6-1.3-1.7-1.5h-0.5c-0.5-0.1-0.8-0.2-0.8-0.5s0.4-0.6,0.9-0.6
				s1.1,0.1,1.5,0.4L32.2,50.5z M46,50c-0.5,0-1,0.3-1.3,0.7v-0.6h-1.1V55h1.1v-2.8c0-0.8,0.4-1.3,1-1.3c0.2,0,0.5,0,0.7,0.1l0.3-1
				C46.5,50,46.3,50,46,50 M36.9,50.1h-1.8v-1.5H34v1.5h-1v1h1v2.2c0,1.1,0.4,1.8,1.7,1.8c0.5,0,0.9-0.1,1.3-0.4l-0.3-0.9
				c-0.3,0.2-0.6,0.3-1,0.3c-0.5,0-0.7-0.3-0.7-0.8v-2.2h1.7v-1C36.7,50.1,36.9,50.1,36.9,50.1z M21,55v-3.1c0-1-0.7-1.9-1.7-1.9
				l0,0H19c-0.7,0-1.4,0.3-1.7,0.9C17,50.3,16.4,50,15.7,50c-0.6,0-1.1,0.3-1.4,0.7v-0.6h-1.1V55h1.1v-2.7c-0.1-0.6,0.4-1.2,1-1.3
				l0,0h0.2c0.7,0,1.1,0.5,1.1,1.3V55h1.1v-2.7c-0.1-0.6,0.4-1.2,1-1.3l0,0h0.2c0.7,0,1.1,0.5,1.1,1.3V55H21z"/>
		</g>
		<g id="Group_4830">
			<path id="Path_2341" class="st2" d="M69.3,38.7V38h-0.2l-0.2,0.5L68.7,38h-0.2v0.7h0.1v-0.5l0.2,0.5H69l0.2-0.5v0.5H69.3z
				 M68.1,38.7v-0.6h0.2V38h-0.6v0.1H68L68.1,38.7L68.1,38.7z"/>
		</g>
		<path id="Path_2342" class="st3" d="M48.1,41.8H31.9v-29h16.2V41.8z"/>
		<g id="Group_4831">
			<path id="Path_2343" class="st4" d="M33,27.2c0-5.7,2.6-11,7-14.5c-8-6.3-19.6-4.9-25.9,3.1c-2.5,3.2-3.9,7.3-3.9,11.4
				c0,10.2,8.3,18.5,18.5,18.5l0,0c4.1,0,8.2-1.4,11.4-4C35.6,38.2,33,32.8,33,27.2"/>
		</g>
		<g id="Group_4832">
			<path id="Path_2344" class="st5" d="M69.9,27.2c0,10.2-8.3,18.5-18.5,18.5c-4.1,0-8.2-1.4-11.4-3.9c8-6.3,9.4-17.9,3-26
				c-0.9-1.1-1.9-2.2-3-3c8-6.3,19.6-4.9,25.9,3.1C68.5,19.1,69.9,23.1,69.9,27.2"/>
		</g>
	</g>
</g>
</svg>
