<?xml version="1.0" encoding="utf-8"?>
<!-- Generator: Adobe Illustrator 28.2.0, SVG Export Plug-In . SVG Version: 6.00 Build 0)  -->
<svg version="1.1" id="Layer_1" xmlns="http://www.w3.org/2000/svg" xmlns:xlink="http://www.w3.org/1999/xlink" x="0px" y="0px"
	 viewBox="0 0 80 64" style="enable-background:new 0 0 80 64;" xml:space="preserve">
<style type="text/css">
	.st0{fill:url(#SVGID_1_);}
	.st1{fill:#FFFFFF;}
	.st2{opacity:0.7;fill:#FFFFFF;enable-background:new    ;}
	.st3{opacity:0.5;fill:#FFFFFF;enable-background:new    ;}
</style>
<linearGradient id="SVGID_1_" gradientUnits="userSpaceOnUse" x1="3.9814" y1="-4.0665" x2="76.0293" y2="67.9814">
	<stop  offset="0" style="stop-color:#00256A"/>
	<stop  offset="1" style="stop-color:#009BDD"/>
</linearGradient>
<rect x="0" y="-0.1" class="st0" width="79.9" height="64.1"/>
<path class="st1" d="M48.2,42.7h-3.7c-0.2,0-0.5,0.2-0.5,0.4l-1.5,9.4c0,0.2,0.1,0.3,0.3,0.4h1.9c0.2,0,0.3-0.1,0.4-0.3l0.4-2.6
	c0-0.2,0.2-0.4,0.5-0.4h1.2c2.1,0.2,3.9-1.2,4.1-3.3c0-0.1,0-0.1,0-0.2c0.2-0.8,0-1.7-0.5-2.4C50.2,43,49.2,42.7,48.2,42.7
	L48.2,42.7z M48.6,46.2c-0.2,1.3-1.2,1.3-2.2,1.3h-0.5l0.4-2.5c0-0.1,0.1-0.3,0.3-0.3h0.3c0.7,0,1.3,0,1.6,0.4
	C48.7,45.4,48.7,45.8,48.6,46.2L48.6,46.2z M22.1,42.7h-3.6c-0.2,0-0.5,0.2-0.5,0.4l-1.5,9.4c0,0.2,0.1,0.3,0.2,0.4l0,0h1.8
	c0.2,0,0.5-0.2,0.5-0.4l0.4-2.5c0-0.2,0.2-0.4,0.5-0.4h1.2c2.1,0.2,3.9-1.2,4.1-3.3l0,0c0-0.1,0-0.1,0-0.2c0.2-0.8,0-1.7-0.5-2.4
	C24.1,43,23.1,42.7,22.1,42.7L22.1,42.7z M22.6,46.2c-0.2,1.3-1.2,1.3-2.2,1.3h-0.5l0.4-2.5c0-0.1,0.1-0.3,0.3-0.3h0.2
	c0.6,0,1.3,0,1.6,0.4C22.6,45.4,22.6,45.8,22.6,46.2L22.6,46.2z M33,46.1h-1.8c-0.2,0-0.3,0.1-0.3,0.3l-0.1,0.5l-0.1-0.2
	c-0.5-0.5-1.3-0.8-2.1-0.7c-2,0-3.7,1.5-3.9,3.5c-0.2,0.9,0,1.9,0.6,2.7c0.6,0.6,1.4,0.9,2.2,0.9c0.9,0,1.8-0.3,2.4-1l0.1,0.5
	c0,0.2,0.1,0.3,0.3,0.3h1.6c0.2,0,0.5-0.2,0.5-0.4l1-6c0-0.2-0.1-0.3-0.2-0.3L33,46.1z M30.6,49.5c-0.1,1-1,1.7-2,1.7
	c-0.7,0.1-1.4-0.5-1.5-1.2c0-0.2,0-0.3,0-0.5c0.2-1,1-1.7,2-1.7c0.4,0,0.9,0.2,1.2,0.5C30.6,48.7,30.7,49.1,30.6,49.5L30.6,49.5z
	 M59.1,46.1h-1.7c-0.2,0-0.3,0.1-0.3,0.3L57,46.9l-0.1-0.2c-0.5-0.5-1.3-0.8-2.1-0.7c-2,0-3.7,1.5-3.9,3.5c-0.2,0.9,0.1,1.9,0.7,2.7
	c0.6,0.6,1.4,0.9,2.2,0.9c0.9,0,1.8-0.3,2.4-1l-0.1,0.5c0,0.2,0.1,0.3,0.2,0.3l0,0H58c0.2,0,0.5-0.2,0.5-0.4l1-6
	C59.5,46.3,59.4,46.2,59.1,46.1C59.2,46.2,59.2,46.2,59.1,46.1L59.1,46.1z M56.7,49.5c-0.1,1-1,1.7-2,1.7c-0.7,0.1-1.4-0.5-1.5-1.2
	c0-0.2,0-0.3,0-0.5c0.2-1,1-1.7,2-1.7c0.7-0.1,1.4,0.4,1.5,1.2C56.7,49.2,56.7,49.3,56.7,49.5L56.7,49.5z M42.4,46.1h-1.8
	c-0.2,0-0.3,0.1-0.4,0.2l-2.4,3.6l-1-3.4c-0.1-0.2-0.3-0.4-0.5-0.4h-1.8c-0.2,0-0.3,0.1-0.3,0.3l0,0v0.1l1.9,5.7l-1.8,2.6
	c-0.1,0.1-0.1,0.3,0,0.4c0.1,0,0.1,0.1,0.2,0.1h1.8c0.2,0,0.3-0.1,0.4-0.2l5.9-8.4c0.1-0.1,0.1-0.3-0.1-0.4l0,0
	C42.5,46.2,42.4,46.1,42.4,46.1L42.4,46.1z M61.2,43l-1.5,9.5c0,0.2,0.1,0.3,0.3,0.4h1.6c0.2,0,0.5-0.2,0.5-0.4l1.5-9.4
	c0-0.2-0.1-0.3-0.2-0.3l0,0h-1.8C61.4,42.8,61.2,42.9,61.2,43z"/>
<path class="st2" d="M51.4,16.5c0.4-2.4,0-3.9-1.3-5.4c-1.4-1.6-4-2.3-7.2-2.3h-9.4c-0.7,0-1.2,0.5-1.3,1.1l-3.9,24.9
	c-0.1,0.4,0.2,0.9,0.7,0.9h6l-0.4,2.5c-0.1,0.4,0.2,0.7,0.6,0.8l0,0h5c0.6,0,1.1-0.4,1.2-1v-0.2l0.9-5.8l0.1-0.3
	c0.1-0.6,0.6-1,1.2-1h0.7c4.8,0,8.5-1.9,9.6-7.5c0.5-2.3,0.2-4.3-1-5.7C52.4,17.1,51.9,16.8,51.4,16.5"/>
<path class="st3" d="M51.4,16.5c0.4-2.4,0-3.9-1.3-5.4c-1.4-1.6-4-2.3-7.2-2.3h-9.4c-0.7,0-1.2,0.5-1.3,1.1l-3.9,24.9
	c-0.1,0.4,0.2,0.9,0.7,0.9h6l1.5-9.3v0.3c0.1-0.7,0.7-1.1,1.3-1.1h2.8c5.4,0,9.7-2.2,10.9-8.6C51.3,16.8,51.4,16.6,51.4,16.5"/>
<path class="st1" d="M37.9,16.5c0.1-0.4,0.3-0.7,0.7-0.9c0.2-0.1,0.3-0.1,0.5-0.1h7.4c0.8,0,1.6,0,2.4,0.2c0.2,0,0.4,0.1,0.6,0.1
	l0.6,0.2l0.3,0.1c0.3,0.1,0.7,0.3,1,0.4c0.4-2.4,0-4-1.3-5.4c-1.4-1.6-4-2.3-7.2-2.3h-9.4c-0.7,0-1.2,0.5-1.3,1.1l-3.9,24.9
	c-0.1,0.4,0.2,0.9,0.7,0.9h6l1.5-9.3L37.9,16.5z"/>
</svg>
