<?xml version="1.0" encoding="utf-8"?>
<!-- Generator: Adobe Illustrator 28.2.0, SVG Export Plug-In . SVG Version: 6.00 Build 0)  -->
<svg version="1.1" id="Layer_1" xmlns="http://www.w3.org/2000/svg" xmlns:xlink="http://www.w3.org/1999/xlink" x="0px" y="0px"
	 viewBox="0 0 80 64" style="enable-background:new 0 0 80 64;" xml:space="preserve">
<style type="text/css">
	.st0{clip-path:url(#SVGID_00000145028512602872005240000017967588642650470831_);}
	.st1{fill:#FFFFFF;}
	.st2{fill:#0061B2;}
	.st3{fill:#FDB827;}
</style>
<g>
	<defs>
		<rect id="SVGID_1_" width="80" height="64"/>
	</defs>
	<clipPath id="SVGID_00000044890371053456886050000010424076845500641451_">
		<use xlink:href="#SVGID_1_"  style="overflow:visible;"/>
	</clipPath>
	<g style="clip-path:url(#SVGID_00000044890371053456886050000010424076845500641451_);">
		<rect y="14.8" class="st1" width="80" height="34.4"/>
		<path class="st2" d="M43.3,38.3c-2.5,0.1-5.2-2-5.2-2l-2.7,3.8c0,0,3,2.4,8.9,2.4c4,0,7.5-3.2,7.6-6.6c0.2-5-7.4-6.4-7.1-8.5
			c0.2-1.1,1-1.7,2.8-1.7c1.3,0,3.7,1.8,3.7,1.8l3.1-3.3c-2.1-1.6-4.6-2.5-7.2-2.6c-4.4,0-7,2.2-7.8,5.3c-1.4,5.7,6.6,6.9,6.9,9.5
			C46.3,37.6,45,38.2,43.3,38.3z"/>
		<path class="st2" d="M72.1,23c0-0.1,0-0.1-0.1-0.2c0-0.1-0.1-0.1-0.1-0.1c-0.1,0-0.2,0-0.3,0h-0.4V24h0.2v-0.6h0.1
			c0,0,0.1,0,0.2,0c0.1,0.1,0.2,0.2,0.2,0.3l0.1,0.2h0.3L72,23.6c-0.1-0.1-0.1-0.2-0.2-0.2l-0.1-0.1c0.1,0,0.2,0,0.2-0.1
			C72.1,23.1,72.1,23,72.1,23z M71.9,23.1C71.9,23.2,71.9,23.2,71.9,23.1c-0.2,0.1-0.2,0.1-0.3,0.1h-0.2v-0.3h0.2c0.1,0,0.1,0,0.2,0
			S71.9,22.9,71.9,23.1C71.9,23,71.9,23,71.9,23.1z"/>
		<path class="st2" d="M71.6,22.2c-0.2,0-0.4,0-0.5,0.1c-0.2,0.1-0.3,0.2-0.4,0.4c-0.2,0.3-0.2,0.8,0,1.1c0.1,0.2,0.2,0.3,0.4,0.4
			c0.3,0.2,0.8,0.2,1.1,0c0.2-0.1,0.3-0.2,0.4-0.4c0.2-0.3,0.2-0.8,0-1.1c-0.1-0.2-0.2-0.3-0.4-0.4C72,22.2,71.8,22.2,71.6,22.2z
			 M72.4,22.8c0.1,0.1,0.1,0.3,0.1,0.5c0,0.2,0,0.4-0.1,0.5c-0.3,0.4-0.8,0.6-1.3,0.3c-0.4-0.3-0.6-0.8-0.3-1.3
			c0.1-0.1,0.2-0.3,0.4-0.3c0.1-0.1,0.3-0.1,0.4-0.1c0.2,0,0.3,0,0.4,0.1C72.2,22.5,72.3,22.6,72.4,22.8z"/>
		<path class="st2" d="M26.3,41.7h5.3l6.5-19.9h-5.3L26.3,41.7z"/>
		<path class="st2" d="M17.5,33.8l-1.2-12h-5.4H7.3v0.6c2.8,0.1,3.6,1.4,4,2.9L13,41.7h5.4L30,21.8h-5.4L17.5,33.8z"/>
		<path class="st2" d="M61.8,22.2L51.6,41.7h5.7l1.5-3h6.6l0.2,3H71l-1.5-19.5H61.8z M60.5,35.5l4.1-8.3l0.6,8.3H60.5z"/>
		<rect x="0" y="0" class="st2" width="80" height="14.8"/>
		<rect y="49.2" class="st3" width="80" height="14.9"/>
	</g>
</g>
</svg>
