<?xml version="1.0" encoding="utf-8"?>
<!-- Generator: Adobe Illustrator 28.2.0, SVG Export Plug-In . SVG Version: 6.00 Build 0)  -->
<svg version="1.1" id="Layer_1" xmlns="http://www.w3.org/2000/svg" xmlns:xlink="http://www.w3.org/1999/xlink" x="0px" y="0px"
	 viewBox="0 0 80 64" style="enable-background:new 0 0 80 64;" xml:space="preserve">
<style type="text/css">
	.st0{fill:#0EE06E;}
	.st1{fill:#FFFFFF;}
</style>
<path class="st0" d="M70,64H10C4.5,64,0,59.5,0,54V10C0,4.5,4.5,0,10,0h60c5.5,0,10,4.5,10,10v44C80,59.5,75.5,64,70,64z"/>
<rect x="-0.1" y="0" class="st0" width="80" height="64"/>
<g>
	<g>
		<path class="st1" d="M28.6,36.2V27h-3.3v-2.2h9V27H31v9.3L28.6,36.2L28.6,36.2z"/>
		<path class="st1" d="M33.9,36.2v-8.3h2.2v1.3c0.5-1.1,1.2-1.3,1.9-1.3h0.8v2.2h-0.7c-1,0-2,0.6-2,2.4v3.7L33.9,36.2L33.9,36.2z"/>
		<path class="st1" d="M39.9,33.2v-5.3h2.3v4.8c0,1,0.5,1.7,1.4,1.7s1.5-0.7,1.5-1.7v-4.8h2.3v8.3h-2.2v-1c-0.5,0.8-1.4,1.2-2.4,1.2
			C41.1,36.4,39.9,35.2,39.9,33.2z"/>
		<path class="st1" d="M48.4,33.9l2-0.5c0.1,0.6,0.6,1.1,1.6,1.1c0.8,0,1.2-0.3,1.2-0.7c0-0.3-0.2-0.5-1-0.7l-1.3-0.3
			c-1.7-0.4-2.4-1.1-2.4-2.5s1.2-2.6,3.4-2.6c2.4,0,3.3,1.4,3.4,2.3l-2,0.4c-0.1-0.5-0.5-1-1.4-1c-0.6,0-1.1,0.3-1.1,0.7
			c0,0.3,0.2,0.5,0.6,0.6l1.9,0.4c1.4,0.3,2.1,1.2,2.1,2.4c0,1.3-1,2.7-3.5,2.7C49.4,36.4,48.5,34.8,48.4,33.9z"/>
		<path class="st1" d="M59.8,36.2c-1.5,0-2.5-0.8-2.5-2.4v-3.9H56v-2h1.4v-1.8l2.3-0.7v2.5h1.7v2h-1.7v3.5c0,0.6,0.3,0.8,0.9,0.8
			h0.9v2H59.8z"/>
		<path class="st1" d="M62.7,36.2V24.8H65v11.5L62.7,36.2L62.7,36.2z"/>
		<path class="st1" d="M71.8,27.9h2.4l-3.5,11.3h-2.4l1-3H68l-2.3-8.3h2.4l1.7,6.4L71.8,27.9z"/>
	</g>
	<polygon class="st1" points="5.7,29.8 11.1,29.8 11.1,25.5 15.3,29.8 11.1,34.1 11.1,36.2 16.3,36.2 16.3,29.8 21,29.8 21,24.8 
		5.7,24.8 	"/>
</g>
</svg>
