<?xml version="1.0" encoding="utf-8"?>
<!-- Generator: Adobe Illustrator 28.2.0, SVG Export Plug-In . SVG Version: 6.00 Build 0)  -->
<svg version="1.1" id="Layer_1" xmlns="http://www.w3.org/2000/svg" xmlns:xlink="http://www.w3.org/1999/xlink" x="0px" y="0px"
	 viewBox="0 0 80 64" style="enable-background:new 0 0 80 64;" xml:space="preserve">
<style type="text/css">
	.st0{fill:#436863;}
	.st1{fill:#FFFFFF;}
</style>
<rect x="-0.2" y="0.1" class="st0" width="80.2" height="64.1"/>
<path class="st1" d="M66.4,40.2c-0.7-0.3-1.5,0.1-1.8,0.8c-5,13.6-20,20.5-33.6,15.6c-9.1-3.3-15.6-11.4-16.9-21l3.8,3.8
	c0.6,0.6,1.4,0.6,2,0s0.6-1.4,0-2l-6.5-6.5l-0.1-0.1c-0.1-0.1-0.2-0.1-0.3-0.2h-0.2c-0.1,0-0.2,0-0.3,0h-0.2c-0.2,0-0.3,0.1-0.4,0.1
	h-0.1c-0.1,0.1-0.2,0.2-0.3,0.3l-5.3,7.5c-0.3,0.3-0.4,0.6-0.4,1s0.1,0.7,0.4,1s0.6,0.4,1,0.4s0.7-0.1,1-0.4
	c0.1-0.1,0.2-0.2,0.2-0.3l3-4.3c2,14.4,14.2,25,28.6,25.1c12.1,0,23-7.6,27.2-19C67.5,41.3,67.1,40.5,66.4,40.2z M73.7,23.4
	c-0.6-0.5-1.5-0.3-1.9,0.3L68.7,28c-2.3-15.8-17-26.8-32.9-24.5c-10.7,1.6-19.7,9-23.3,19.3c-0.2,0.7,0.1,1.5,0.9,1.8
	c0.7,0.2,1.5-0.1,1.8-0.9l0,0C19.8,9.9,34.6,2.5,48.3,7.1c9.5,3.2,16.3,11.4,17.7,21.3l-3.8-3.8c-0.6-0.6-1.4-0.6-2,0s-0.6,1.4,0,2
	l0,0l6.4,6.4c0.3,0.3,0.6,0.4,1,0.4h0.2H68h0.2c0.1-0.1,0.2-0.1,0.3-0.2l0.1-0.1c0.1,0,0.1-0.1,0.2-0.2l5.2-7.5
	c0.2-0.3,0.3-0.6,0.3-1C74.2,24,74,23.6,73.7,23.4L73.7,23.4z M30.9,27h18.2v0.8H30.9V27z M31.7,25.5h16.7v0.8H31.7V25.5z
	 M31.7,17.4h16.7v0.8H31.7V17.4z M40,11.7l-8.3,4.2v0.8h16.7v-0.8L40,11.7z M40,14.9c-0.4,0-0.8-0.4-0.8-0.8s0.4-0.8,0.8-0.8
	c0.4,0,0.8,0.4,0.8,0.8l0,0C40.8,14.6,40.4,14.9,40,14.9L40,14.9z M31.7,25.6h2.2l-0.4-0.8v-6l0.4-0.8h-2.2l0.4,0.8v6L31.7,25.6
	L31.7,25.6z M38.7,18.1h-2.2l0.4,0.8v5.9l-0.4,0.8h2.2l-0.4-0.8v-6L38.7,18.1L38.7,18.1z M43.5,18.1h-2.2l0.4,0.8v5.9l-0.4,0.8h2.2
	l-0.4-0.8v-6L43.5,18.1L43.5,18.1z M48.3,18.1h-2.2l0.4,0.8v5.9l-0.4,0.8h2.2l-0.4-0.8v-6L48.3,18.1L48.3,18.1z M30,30.5h3.1
	c0.5,0,1,0.1,1.4,0.4s0.6,0.7,0.5,1.2c0,0.3-0.1,0.6-0.2,0.8c-0.2,0.2-0.4,0.4-0.7,0.5c0.4,0.1,0.7,0.3,0.9,0.5
	c0.2,0.3,0.3,0.7,0.3,1.1c0,0.2,0,0.5-0.1,0.7s-0.2,0.4-0.4,0.6c-0.2,0.2-0.5,0.3-0.7,0.4C33.7,36.9,33.3,37,33,37h-3V30.5z
	 M31.1,33.2H33c0.2,0,0.5-0.1,0.6-0.2c0.2-0.2,0.3-0.4,0.3-0.7s-0.1-0.5-0.2-0.7c-0.2-0.1-0.5-0.2-0.7-0.2h-1.9L31.1,33.2z
	 M31.1,36.1h2c0.3,0,0.6-0.1,0.8-0.3s0.3-0.5,0.3-0.8s-0.1-0.5-0.3-0.7S33.4,34,33.1,34h-2L31.1,36.1z M40.1,35.9c0,0.1,0,0.2,0,0.3
	s0.1,0.1,0.2,0.1h0.2V37h-0.7c-0.2,0-0.4,0-0.5,0c-0.2-0.1-0.3-0.3-0.3-0.4c-0.2,0.2-0.5,0.4-0.8,0.4c-0.3,0.1-0.6,0.1-0.9,0.1
	c-0.2,0-0.4,0-0.6-0.1c-0.2,0-0.3-0.1-0.5-0.2c-0.2-0.1-0.3-0.3-0.4-0.4c-0.1-0.2-0.1-0.4-0.1-0.6c0-0.2,0.1-0.5,0.2-0.7
	c0.1-0.2,0.2-0.3,0.4-0.4c0.2-0.1,0.4-0.2,0.6-0.2c0.2,0,0.4-0.1,0.6-0.1s0.4,0,0.5-0.1c0.1,0,0.3,0,0.4-0.1c0.1,0,0.2-0.1,0.3-0.2
	c0.1-0.1,0.1-0.2,0.1-0.3s0-0.2-0.1-0.3s-0.1-0.2-0.2-0.2c-0.1,0-0.2-0.1-0.3-0.1s-0.2,0-0.3,0c-0.3,0-0.5,0-0.7,0.2
	c-0.2,0.1-0.3,0.3-0.3,0.6h-1c0-0.3,0-0.6,0.2-0.8c0.1-0.2,0.3-0.4,0.5-0.5s0.4-0.2,0.7-0.3c0.3,0,0.5-0.1,0.8-0.1
	c0.2,0,0.5,0,0.7,0.1c0.2,0,0.4,0.1,0.6,0.2c0.2,0.1,0.3,0.3,0.4,0.4c0.1,0.2,0.2,0.4,0.2,0.6L40.1,35.9z M39.1,34.6
	c-0.2,0.1-0.4,0.2-0.6,0.2l-0.7,0.1c-0.1,0-0.2,0.1-0.3,0.1s-0.2,0.1-0.3,0.1c-0.1,0.1-0.2,0.1-0.2,0.2c0,0.1-0.1,0.2-0.1,0.3
	s0,0.2,0,0.3C37,36,37,36,37.1,36.1c0.1,0,0.2,0.1,0.3,0.1c0.2,0,0.5,0,0.7,0c0.1,0,0.3-0.1,0.4-0.2c0.1-0.1,0.2-0.2,0.3-0.3
	s0.1-0.3,0.1-0.4L39.1,34.6z M41.2,32.3h1V33c0.1-0.2,0.4-0.5,0.6-0.6c0.7-0.4,1.5-0.3,2.1,0.2c0.3,0.3,0.5,0.8,0.4,1.2V37h-1v-3
	c0-0.3-0.1-0.6-0.2-0.8c-0.2-0.2-0.4-0.3-0.7-0.2c-0.2,0-0.3,0-0.5,0.1c-0.1,0.1-0.2,0.1-0.3,0.2c-0.1,0.1-0.2,0.3-0.2,0.4
	c-0.1,0.2-0.1,0.3-0.1,0.5V37h-1L41.2,32.3z M46.4,30.5h1v3.7l1.9-1.9h1.3L48.8,34l2,3h-1.3l-1.4-2.2l-0.6,0.6V37h-1L46.4,30.5z
	 M23.2,39.5h5.2v1h-2V46h-1.1v-5.5h-2L23.2,39.5z M28.2,41.3h1v0.9c0-0.1,0.1-0.3,0.2-0.4c0.1-0.1,0.2-0.2,0.3-0.3
	c0.1-0.1,0.3-0.2,0.4-0.2c0.1-0.1,0.3-0.1,0.5-0.1H31v1h-0.4c-0.2,0-0.3,0-0.5,0.1s-0.3,0.2-0.4,0.3s-0.2,0.3-0.3,0.5
	c-0.1,0.2-0.1,0.4-0.1,0.7V46h-1L28.2,41.3z M35.3,44.9c0,0.1,0,0.2,0,0.3s0.1,0.1,0.2,0.1h0.1c0,0,0.1,0,0.2,0V46h-0.7
	c-0.2,0-0.3,0-0.5,0c-0.1-0.1-0.2-0.3-0.3-0.4c-0.2,0.2-0.5,0.3-0.8,0.4c-0.3,0.1-0.6,0.1-0.9,0.1c-0.2,0-0.4,0-0.6-0.1
	c-0.2,0-0.3-0.1-0.5-0.2c-0.1-0.1-0.3-0.3-0.4-0.4C31,45.2,31,45,31,44.8c0-0.2,0.1-0.5,0.2-0.7s0.2-0.3,0.4-0.4
	c0.2-0.1,0.4-0.2,0.6-0.2c0.2,0,0.4-0.1,0.6-0.1s0.4-0.1,0.5-0.1s0.3,0,0.4-0.1c0.1,0,0.2-0.1,0.3-0.2c0.1-0.1,0.1-0.2,0.1-0.3
	s0-0.2-0.1-0.3s-0.1-0.2-0.2-0.2c-0.1,0-0.2-0.1-0.3-0.1h-0.3c-0.3,0-0.5,0.1-0.7,0.2c-0.2,0.1-0.3,0.3-0.3,0.5h-1
	c0-0.3,0.1-0.6,0.2-0.8s0.3-0.4,0.5-0.5s0.4-0.2,0.7-0.2s0.5-0.1,0.8-0.1c0.2,0,0.5,0,0.7,0.1c0.2,0,0.4,0.1,0.6,0.2
	c0.2,0.1,0.3,0.2,0.4,0.4c0.1,0.2,0.2,0.4,0.2,0.6V44.9z M34.3,43.6c-0.2,0.1-0.4,0.2-0.6,0.2c-0.2,0-0.5,0.1-0.7,0.1L32.7,44
	c-0.1,0-0.2,0.1-0.3,0.1c-0.1,0.1-0.2,0.1-0.2,0.2c0,0.1-0.1,0.2-0.1,0.3s0,0.2,0.1,0.3s0.1,0.1,0.2,0.2c0.1,0,0.2,0.1,0.3,0.1H33
	c0.1,0,0.2,0,0.4,0c0.1,0,0.3-0.1,0.4-0.2c0.1-0.1,0.2-0.2,0.3-0.3s0.1-0.3,0.1-0.4L34.3,43.6z M36.4,41.3h1V42
	c0.1-0.2,0.4-0.5,0.6-0.6c0.3-0.1,0.5-0.2,0.8-0.2c0.4,0,0.9,0.1,1.2,0.4c0.3,0.3,0.5,0.8,0.5,1.2V46h-1v-3c0-0.3-0.1-0.6-0.2-0.8
	c-0.2-0.2-0.4-0.3-0.7-0.2c-0.2,0-0.3,0-0.5,0.1c-0.1,0.1-0.2,0.1-0.3,0.3c-0.1,0.1-0.2,0.3-0.2,0.4c-0.1,0.2-0.1,0.3-0.1,0.5V46h-1
	L36.4,41.3z M42.4,44.5c0,0.3,0.1,0.5,0.3,0.6s0.5,0.2,0.7,0.2h0.3c0.1,0,0.2-0.1,0.3-0.1s0.2-0.1,0.3-0.2c0.1-0.1,0.1-0.2,0.1-0.3
	s-0.1-0.2-0.2-0.3c-0.1-0.1-0.2-0.2-0.3-0.2c-0.2-0.1-0.3-0.1-0.5-0.1L42.9,44c-0.2,0-0.4-0.1-0.6-0.2c-0.2-0.1-0.3-0.1-0.5-0.2
	c-0.1-0.1-0.3-0.2-0.3-0.4c-0.1-0.2-0.1-0.4-0.1-0.6c0-0.2,0.1-0.5,0.2-0.6c0.1-0.2,0.3-0.3,0.5-0.4c0.2-0.1,0.4-0.2,0.6-0.2
	c0.2,0,0.4-0.1,0.7-0.1c0.2,0,0.5,0,0.7,0.1s0.4,0.1,0.6,0.2c0.2,0.1,0.3,0.3,0.4,0.5c0.1,0.2,0.2,0.4,0.2,0.7h-1.1
	c0-0.2-0.1-0.4-0.3-0.5s-0.4-0.1-0.6-0.1H43c-0.1,0-0.2,0-0.3,0.1c-0.1,0-0.2,0.1-0.2,0.1c-0.1,0.1-0.1,0.2-0.1,0.2
	c0,0.1,0.1,0.2,0.1,0.3c0.1,0.1,0.2,0.2,0.3,0.2c0.2,0.1,0.3,0.1,0.5,0.1l0.5,0.1c0.2,0,0.4,0.1,0.5,0.2c0.2,0.1,0.3,0.1,0.5,0.2
	c0.1,0.1,0.3,0.2,0.4,0.4c0.1,0.2,0.1,0.4,0.1,0.6c0,0.2-0.1,0.5-0.2,0.7c-0.1,0.2-0.3,0.3-0.5,0.5c-0.2,0.1-0.4,0.2-0.7,0.3
	c-0.2,0.1-0.5,0.1-0.7,0.1c-0.3,0-0.6,0-0.8-0.1s-0.5-0.2-0.7-0.3s-0.3-0.3-0.4-0.5c-0.1-0.2-0.2-0.5-0.2-0.7L42.4,44.5z M45.8,41.3
	h0.8v-0.4c0-0.2,0-0.5,0.1-0.7s0.2-0.3,0.3-0.4c0.1-0.1,0.3-0.2,0.4-0.2c0.2,0,0.3,0,0.5,0s0.5,0,0.7,0.1v0.8h-0.5
	c-0.1,0-0.3,0-0.4,0.1c-0.1,0.1-0.2,0.2-0.2,0.4v0.5h0.9v0.8h-0.9V46h-1v-3.9h-0.8L45.8,41.3z M49.9,43.9c0,0.2,0,0.4,0.1,0.5
	c0,0.2,0.1,0.3,0.2,0.5c0.1,0.1,0.3,0.2,0.4,0.3c0.2,0.1,0.4,0.1,0.5,0.1c0.3,0,0.5,0,0.7-0.2s0.3-0.4,0.4-0.6h1
	c0,0.2-0.1,0.5-0.3,0.7c-0.1,0.2-0.3,0.4-0.5,0.5S52,45.9,51.8,46c-0.2,0.1-0.5,0.1-0.7,0.1c-0.3,0-0.7-0.1-1-0.2
	c-0.3-0.1-0.5-0.3-0.7-0.5s-0.4-0.5-0.5-0.8s-0.1-0.7-0.1-1s0-0.6,0.1-1c0.1-0.3,0.3-0.6,0.5-0.8s0.4-0.4,0.7-0.5s0.6-0.2,0.9-0.2
	c0.3,0,0.7,0.1,1,0.2c0.3,0.1,0.5,0.3,0.7,0.6s0.3,0.6,0.4,0.9c0.1,0.3,0.1,0.7,0.1,1L49.9,43.9z M52.3,43.2c0-0.2,0-0.3-0.1-0.5
	c-0.1-0.1-0.1-0.3-0.2-0.4c-0.1-0.1-0.2-0.2-0.4-0.3c-0.1,0-0.3,0-0.5,0s-0.3,0-0.5,0.1c-0.1,0.1-0.3,0.1-0.4,0.2
	c-0.1,0.1-0.2,0.3-0.2,0.4c-0.1,0.2-0.1,0.3-0.1,0.5H52.3z M54.2,41.3h1v0.9c0-0.1,0.1-0.3,0.2-0.4c0.1-0.1,0.2-0.2,0.3-0.3
	s0.3-0.2,0.4-0.2c0.1-0.1,0.3-0.1,0.5-0.1H57v1h-0.4c-0.2,0-0.3,0-0.5,0.1s-0.3,0.2-0.4,0.3c-0.1,0.1-0.2,0.3-0.3,0.5
	s-0.1,0.4-0.1,0.7V46h-1L54.2,41.3z"/>
</svg>
