<?xml version="1.0" encoding="utf-8"?>
<!-- Generator: Adobe Illustrator 28.2.0, SVG Export Plug-In . SVG Version: 6.00 Build 0)  -->
<svg version="1.1" id="Layer_1" xmlns="http://www.w3.org/2000/svg" xmlns:xlink="http://www.w3.org/1999/xlink" x="0px" y="0px"
	 viewBox="0 0 80 64" style="enable-background:new 0 0 80 64;" xml:space="preserve">
<style type="text/css">
	.st0{fill:#ECEDEF;}
</style>
<rect x="0" y="0" class="st0" width="80" height="63.9"/>
<path id="Apple_Pay_logo" d="M17.8,21.3C17,22.4,15.7,23,14.3,23c-0.1-1.3,0.4-2.6,1.2-3.6c0.9-1,2.1-1.7,3.4-1.8
	C19.1,19,18.7,20.3,17.8,21.3 M19,23.2c-1.9-0.1-3.5,1.1-4.4,1.1s-2.3-1-3.8-1c-2,0.1-3.8,1.2-4.8,2.9C3.9,29.7,5.4,35,7.4,37.8
	c1,1.4,2.1,3,3.7,2.9s2-0.9,3.8-0.9s2.3,1,3.8,0.9s2.6-1.4,3.5-2.8c0.7-1,1.2-2.1,1.6-3.3c-1.9-0.8-3.1-2.6-3.1-4.7
	c0-1.8,1-3.5,2.5-4.4C22.2,24.2,20.7,23.3,19,23.2 M30,19.2v21.4h3.3v-7.3h4.6c3.7,0.2,6.9-2.7,7.1-6.4c0-0.2,0-0.4,0-0.6
	c0.2-3.7-2.7-6.8-6.3-7c-0.2,0-0.4,0-0.7,0L30,19.2z M33.3,22h3.8c2.9,0,4.5,1.5,4.5,4.2S40,30.5,37,30.5h-3.8L33.3,22L33.3,22z
	 M51,40.7c2,0.1,3.9-1,4.9-2.7H56v2.5h3V30c0-3.1-2.5-5-6.2-5c-3.5,0-6.1,2-6.2,4.8h3c0.4-1.4,1.7-2.3,3.1-2.2c2,0,3.2,1,3.2,2.7
	v1.2l-4.1,0.2c-3.8,0.2-5.9,1.8-5.9,4.5S47.9,40.7,51,40.7L51,40.7z M51.9,38.2c-1.8,0-2.9-0.8-2.9-2.1s1.1-2.1,3.1-2.2l3.7-0.2v1.2
	C55.8,36.8,54.2,38.2,51.9,38.2L51.9,38.2z M63.1,46.4c3.2,0,4.7-1.2,6.1-5L75,25.1h-3.4l-3.9,12.6h-0.1l-3.9-12.6h-3.5l5.6,15.5
	l-0.3,0.9c-0.5,1.6-1.3,2.2-2.8,2.2c-0.3,0-0.7,0-1-0.1v2.6C62.3,46.3,62.7,46.4,63.1,46.4L63.1,46.4z"/>
</svg>
