<?xml version="1.0" encoding="utf-8"?>
<!-- Generator: Adobe Illustrator 28.2.0, SVG Export Plug-In . SVG Version: 6.00 Build 0)  -->
<svg version="1.1" id="Layer_1" xmlns="http://www.w3.org/2000/svg" xmlns:xlink="http://www.w3.org/1999/xlink" x="0px" y="0px"
	 viewBox="0 0 80 64" style="enable-background:new 0 0 80 64;" xml:space="preserve">
<style type="text/css">
	.st0{fill:#ECEDEF;}
	.st1{fill:#0099DF;}
	.st2{fill:#6C6BBD;}
	.st3{fill:#EB001B;}
	.st4{fill:#231F20;}
</style>
<rect x="0" y="0.1" class="st0" width="80" height="64"/>
<path class="st1" d="M69.2,38.7V38H69l-0.2,0.5L68.6,38h-0.2v0.7h0.1v-0.5l0.2,0.5h0.1l0.2-0.5v0.5H69.2z M68.1,38.7v-0.6h0.2V38
	h-0.6v0.1h0.2v0.6C67.9,38.7,68.1,38.7,68.1,38.7z"/>
<path class="st2" d="M48.1,41.7H31.9v-29H48L48.1,41.7L48.1,41.7z"/>
<path class="st3" d="M33,27.2c0-5.6,2.6-11,7-14.5c-8-6.3-19.6-4.9-25.9,3.1c-2.5,3.2-3.9,7.3-3.9,11.4c0,10.2,8.2,18.4,18.4,18.4
	l0,0c4.1,0,8.1-1.4,11.4-3.9C35.6,38.2,33,32.9,33,27.2"/>
<path class="st1" d="M69.8,27.2c0,10.2-8.3,18.4-18.4,18.4c-4.1,0-8.1-1.4-11.4-3.9c8-6.3,9.4-17.9,3.1-25.9c-0.9-1.2-2-2.2-3.1-3.1
	c8-6.3,19.6-4.9,25.9,3.1C68.4,19.1,69.8,23.1,69.8,27.2"/>
<path class="st4" d="M53.5,49.9c0.3,0,0.5,0,0.8,0.1L54,51c-0.2-0.1-0.4-0.1-0.7-0.1c-0.7,0-1,0.5-1,1.3v2.7h-1.1V50h1v0.6
	C52.5,50.1,53,49.9,53.5,49.9 M49.5,51h-1.7v2.2c0,0.5,0.2,0.8,0.7,0.8c0.3,0,0.7-0.1,1-0.3l0.3,0.9c-0.4,0.2-0.9,0.4-1.3,0.4
	c-1.3,0-1.7-0.7-1.7-1.8V51h-1v-1h1v-1.5h1.1V50h1.7L49.5,51L49.5,51z M35.9,52c0-0.7,0.6-1.2,1.3-1.2l0,0c0.7,0,1.2,0.5,1.2,1.2
	l0,0H35.9z M39.6,52.4c0.1-1.3-0.8-2.4-2.1-2.6h-0.2c-1.3,0-2.4,1-2.4,2.3c0,0.1,0,0.2,0,0.2c-0.1,1.3,0.9,2.5,2.2,2.5l0,0h0.3
	c0.7,0,1.4-0.2,2-0.7l-0.5-0.8c-0.4,0.3-0.9,0.5-1.4,0.5c-0.7,0.1-1.4-0.5-1.5-1.2h3.6C39.6,52.7,39.6,52.6,39.6,52.4 M44.2,51.2
	c-0.5-0.3-1-0.4-1.5-0.4c-0.6,0-0.9,0.2-0.9,0.6s0.4,0.4,0.8,0.5l0.5,0.1c1.1,0.2,1.7,0.6,1.7,1.5S44,55,42.6,55
	c-0.8,0-1.5-0.2-2.1-0.6l0.5-0.8c0.5,0.3,1,0.5,1.6,0.5c0.7,0,1.1-0.2,1.1-0.6S43.4,53,42.9,53l-0.5-0.1c-1.1-0.2-1.7-0.7-1.7-1.4
	c0-1,0.8-1.6,2-1.6c0.7,0,1.4,0.1,2,0.5L44.2,51.2z M57.4,50.9c-0.2,0-0.4,0-0.6,0.1c-0.2,0.1-0.4,0.2-0.5,0.3S56,51.6,56,51.8
	c-0.1,0.2-0.1,0.4-0.1,0.7c0,0.2,0,0.4,0.1,0.6c0.1,0.2,0.2,0.4,0.3,0.5s0.3,0.2,0.5,0.3c0.4,0.2,0.8,0.2,1.2,0.1
	c0.2-0.1,0.4-0.2,0.5-0.3s0.2-0.3,0.3-0.5c0.2-0.4,0.2-0.9,0-1.3c-0.1-0.2-0.2-0.4-0.3-0.5c-0.1-0.2-0.3-0.3-0.5-0.4
	C57.8,50.9,57.6,50.9,57.4,50.9 M57.4,49.9c0.4,0,0.7,0.1,1,0.2c0.3,0.1,0.6,0.3,0.8,0.5s0.4,0.5,0.5,0.8s0.2,0.7,0.2,1
	s-0.1,0.7-0.2,1c-0.3,0.6-0.8,1.1-1.4,1.4c-0.3,0.1-0.7,0.2-1,0.2c-0.4,0-0.7-0.1-1.1-0.2c-0.3-0.1-0.6-0.3-0.8-0.5
	s-0.4-0.5-0.5-0.8s-0.2-0.7-0.2-1s0.1-0.7,0.2-1c0.1-0.3,0.3-0.6,0.5-0.8s0.5-0.4,0.8-0.5C56.6,50,57,49.9,57.4,49.9 M29.7,52.5
	c-0.1-0.8,0.6-1.5,1.4-1.6h0.1c0.8,0,1.5,0.6,1.5,1.5l0,0v0.1c0,0.8-0.6,1.5-1.4,1.5h-0.1C30.4,54,29.7,53.4,29.7,52.5
	C29.7,52.6,29.7,52.6,29.7,52.5L29.7,52.5 M33.7,52.5V50h-1.1v0.6c-0.4-0.5-0.9-0.7-1.5-0.7c-1.4,0-2.5,1.1-2.5,2.5l0,0v0.1
	c-0.1,1.4,1,2.5,2.3,2.5l0,0H31c0.6,0,1.2-0.2,1.5-0.7v0.6h1.1L33.7,52.5z M27.7,54.9v-3c0.1-1-0.7-1.9-1.7-1.9l0,0h-0.2
	c-0.7-0.1-1.4,0.3-1.7,0.9c-0.3-0.6-0.9-0.9-1.6-0.9c-0.6,0-1.1,0.2-1.5,0.7V50h-1v4.9h1v-2.7c-0.1-0.6,0.4-1.2,1-1.3h0.2
	c0.7,0,1.1,0.5,1.1,1.3v2.7h1.1v-2.7c-0.1-0.6,0.4-1.2,1-1.3h0.2c0.7,0,1.1,0.5,1.1,1.3v2.7H27.7z M61.2,54.5L61.2,54.5l0.2,0.1
	v-0.1l0,0h-0.1H61.2z M61.3,54.5L61.3,54.5L61.3,54.5l0.1,0.2h-0.1l0.1,0.2h-0.1l-0.2-0.2v0.2H61v-0.5L61.3,54.5z M61.3,55.1
	c0.1,0,0.1,0,0.2,0c0,0,0.1,0,0.1-0.1l0.1-0.1v-0.1c0,0,0-0.1,0-0.2c0,0,0-0.1-0.1-0.1l-0.1-0.1c-0.1,0-0.2,0-0.3,0
	c0,0-0.1,0-0.1,0.1L61,54.6c0,0.1,0,0.2,0,0.3V55l0.1,0.1C61.2,55.1,61.2,55.1,61.3,55.1 M61.3,54.2c0.1,0,0.1,0,0.2,0
	c0.1,0,0.1,0.1,0.2,0.1c0,0,0.1,0.1,0.1,0.2c0,0.1,0,0.1,0,0.2c0,0.1,0,0.1,0,0.2c0,0.1-0.1,0.1-0.1,0.1s-0.1,0.1-0.2,0.1
	c-0.1,0-0.1,0-0.2,0c-0.1,0-0.1,0-0.2,0C61,55.1,61,55,60.9,55c0,0-0.1-0.1-0.1-0.2c0-0.1,0-0.1,0-0.2c0-0.1,0-0.1,0-0.2
	c0-0.1,0.1-0.1,0.1-0.2l0.2-0.1C61.1,54.2,61.2,54.2,61.3,54.2"/>
</svg>
