<?xml version="1.0" encoding="utf-8"?>
<!-- Generator: Adobe Illustrator 28.2.0, SVG Export Plug-In . SVG Version: 6.00 Build 0)  -->
<svg version="1.1" id="Layer_1" xmlns="http://www.w3.org/2000/svg" xmlns:xlink="http://www.w3.org/1999/xlink" x="0px" y="0px"
	 viewBox="0 0 80 64" style="enable-background:new 0 0 80 64;" xml:space="preserve">
<style type="text/css">
	.st0{fill:url(#SVGID_1_);}
	.st1{fill-rule:evenodd;clip-rule:evenodd;fill:#FFFFFF;}
</style>
<linearGradient id="SVGID_1_" gradientUnits="userSpaceOnUse" x1="40.1011" y1="-2.127660e-02" x2="40.1011" y2="64.0319">
	<stop  offset="0" style="stop-color:#6B195F"/>
	<stop  offset="1" style="stop-color:#4C255B"/>
</linearGradient>
<rect x="0.1" y="0" class="st0" width="79.9" height="64.1"/>
<path class="st1" d="M54.4,26.1c1.5,0,2.7-1.2,2.7-2.7s-1.2-2.7-2.7-2.7s-2.7,1.2-2.7,2.7S52.9,26.1,54.4,26.1L54.4,26.1z
	 M33.7,27.6c-0.7,2-1.8,3.8-3.1,5.4V22l-5.7,1.1v20h5.7v-6.2c1.1,1.9,2,4,2.5,6.2h6.8c-0.7-2.8-3.6-8-3.6-8c1.8-2.2,3.1-4.8,4-7.5
	L33.7,27.6z M48.6,27.4c-5.1,0.2-7.7,2.4-7.7,7v8.7h5.5V36c0-2.7,0.4-3.9,3.6-4v-4.5C49.5,27.4,49.1,27.4,48.6,27.4z M15.4,29.8
	c-0.7,0-2.3-0.1-2.3-1.6c0-1.7,2.3-1.7,3.2-1.7c1.7,0.1,3.3,0.4,4.9,0.9c0,0,0.8,0.3,1.5,0.6h0.1v-4.8h-0.1
	c-2.3-0.8-4.8-1.2-7.2-1.1C9.2,22,7,25.6,7,28.7c0,1.8,0.8,6,7.9,6.5c0.6,0,2.2,0.1,2.2,1.6c0,1.2-1.3,2-3.5,2
	c-2.1,0-4.2-0.4-6.2-1.2v4.9c2.4,0.6,4.9,0.9,7.3,0.8c6,0,8.8-3.4,8.8-6.8C23.5,32.7,20.5,30.2,15.4,29.8L15.4,29.8z M51.7,43h5.5
	V27.6h-5.5V43z M67.5,23v20.1H73V22L67.5,23z M59.5,23l5.5-1v21h-5.5V23z"/>
</svg>
