<?xml version="1.0" encoding="utf-8"?>
<!-- Generator: Adobe Illustrator 28.2.0, SVG Export Plug-In . SVG Version: 6.00 Build 0)  -->
<svg version="1.1" id="Layer_1" xmlns="http://www.w3.org/2000/svg" xmlns:xlink="http://www.w3.org/1999/xlink" x="0px" y="0px"
	 viewBox="0 0 80 64" style="enable-background:new 0 0 80 64;" xml:space="preserve">
<style type="text/css">
	.st0{fill:#008AC9;}
	.st1{fill:#FFFFFF;}
	.st2{fill:#E3001B;}
</style>
<rect x="0.1" y="0" class="st0" width="79.9" height="64"/>
<g>
	<path id="path2491" class="st1" d="M17.1,31.4c0-0.2-0.1-0.4-0.4-0.4h-1.2c-0.3,0-0.4,0.2-0.4,0.5v2.2c0,0.3,0.2,0.5,0.5,0.5h1.1
		c0.1,0,0.2,0,0.3-0.1c0.1-0.1,0.1-0.2,0.1-0.3V31.4z M13.6,31c0-0.5,0.1-1,0.4-1.2c0.1-0.1,0.3-0.2,0.5-0.3
		c0.2-0.1,0.4-0.1,0.6-0.1h2.2c1,0,1.5,0.5,1.5,1.6v3.3c0,0.4-0.2,0.7-0.4,1c-0.3,0.3-0.6,0.4-1,0.4h-2.1v2.4h-1.6V31"/>
	<path id="path2493" class="st1" d="M21.5,33.8c0,0.1,0,0.2,0.1,0.2c0.1,0.1,0.2,0.1,0.3,0.1h1.2c0.3,0,0.4-0.1,0.4-0.3v-0.4
		c0-0.2-0.1-0.4-0.4-0.4h-1.2c-0.2,0-0.3,0-0.3,0.1c-0.1,0.1-0.1,0.2-0.1,0.3V33.8z M23.5,31.3c0-0.2-0.1-0.4-0.4-0.3H20v-1.6h3.5
		c1,0,1.6,0.5,1.6,1.5v3.3c0,0.4-0.1,0.8-0.4,1c-0.3,0.3-0.6,0.4-1,0.4h-2.1c-1,0-1.6-0.5-1.6-1.4V33c0-1,0.5-1.5,1.5-1.5h2.1v-0.2"
		/>
	<path id="path2495" class="st1" d="M29.4,36.5c0.1,0,0.2-0.1,0.3-0.1c0.1-0.1,0.1-0.2,0.1-0.3v-0.4h-2c-0.3,0-0.5,0-0.6-0.1
		c-0.2-0.1-0.3-0.2-0.5-0.3c-0.2-0.2-0.3-0.3-0.3-0.5c-0.1-0.2-0.1-0.4-0.1-0.6v-4.7h1.6v4.2c0,0.3,0.1,0.5,0.4,0.5h1.1
		c0.1,0,0.2,0,0.3-0.1c0.1-0.1,0.1-0.2,0.1-0.3v-4.3h1.5v7c0,0.5-0.1,0.9-0.4,1.2s-0.6,0.5-1.1,0.5h-3.6v-1.6h3.2"/>
	<path id="path2497" class="st1" d="M32.6,34.1h2.8c0.3,0,0.4-0.1,0.4-0.3v-0.1v-0.1c-0.1-0.1-0.1-0.2-0.2-0.2h-1.4
		c-0.4,0-0.8-0.1-1-0.4c-0.3-0.3-0.4-0.6-0.5-0.9v-1.2c0-0.9,0.5-1.4,1.5-1.4h3.2V31h-2.7c-0.3,0-0.5,0.1-0.5,0.3v0.2
		c0,0.2,0.2,0.3,0.5,0.3h1.4c0.4,0,0.7,0.1,0.9,0.4c0.3,0.3,0.4,0.6,0.4,1v1.2c0,0.3-0.2,0.7-0.5,1c-0.1,0.2-0.3,0.3-0.4,0.3
		c-0.2,0.1-0.4,0.1-0.6,0.1h-3.3L32.6,34.1"/>
	<path id="path2499" class="st1" d="M40.1,33.8c0,0.1,0,0.2,0.1,0.2c0.1,0.1,0.2,0.1,0.3,0.1h1.2c0.3,0,0.4-0.1,0.4-0.3v-0.4
		c0-0.2-0.1-0.4-0.4-0.4h-1.2c-0.2,0-0.3,0-0.3,0.1c-0.1,0.1-0.1,0.2-0.1,0.3V33.8z M42.1,31.3c0-0.2-0.1-0.4-0.4-0.3h-3.1v-1.6h3.5
		c1,0,1.5,0.5,1.6,1.5v3.3c0,0.4-0.1,0.8-0.4,1c-0.3,0.3-0.6,0.4-1,0.4h-2.1c-1,0-1.6-0.5-1.6-1.4V33c0-1,0.5-1.5,1.5-1.5h2.1
		L42.1,31.3"/>
	<path id="path2501" class="st1" d="M44.9,28.5c0-0.4,0.2-0.8,0.5-1c0.3-0.3,0.7-0.4,1.2-0.4h1v1.5H47c-0.3,0-0.5,0.2-0.5,0.5v0.3
		h1.1V31h-1.1v4.7h-1.6V28.5"/>
	<path id="path2503" class="st1" d="M52,31.3L52,31.3c0-0.1,0-0.2-0.1-0.2C51.8,31,51.7,31,51.6,31h-1.1c-0.1,0-0.3,0-0.3,0.1
		c-0.1,0.1-0.2,0.2-0.2,0.3V32L52,31.3z M50.1,33.5L50.1,33.5c0,0.2,0,0.3,0.1,0.4c0,0.1,0.1,0.1,0.2,0.1h3.2v1.6h-3.4
		c-0.3,0-0.6,0-0.7-0.1c-0.2-0.1-0.4-0.2-0.5-0.3c-0.2-0.2-0.3-0.3-0.3-0.5c-0.1-0.2-0.1-0.4-0.1-0.7v-3.2c0-1,0.5-1.5,1.5-1.5h2.1
		c1,0,1.5,0.5,1.5,1.5v1.3L50.1,33.5"/>
	<path id="path2505" class="st1" d="M56.9,35.7c-0.2,0-0.5,0-0.6-0.1c-0.2,0-0.4-0.1-0.6-0.3c-0.2-0.2-0.4-0.4-0.4-0.6
		c-0.1-0.2-0.1-0.5-0.1-0.8v-3c0-0.2,0-0.5,0.1-0.6c0.1-0.2,0.2-0.4,0.3-0.5c0.2-0.2,0.4-0.3,0.6-0.4c0.2,0,0.4-0.1,0.7-0.1h2.4v0.4
		H57c-0.4,0-0.7,0.1-1,0.3c-0.2,0.2-0.4,0.5-0.4,1v3c0,0.2,0,0.4,0.1,0.6c0.1,0.2,0.2,0.4,0.3,0.5c0.2,0.1,0.3,0.2,0.5,0.2
		s0.4,0.1,0.6,0.1h2.2v0.4h-2.4"/>
	<path id="path2507" class="st1" d="M65.2,31.8h-3.1c-0.4,0-0.7,0.1-0.9,0.3c-0.2,0.2-0.3,0.5-0.3,0.9v1c0,0.2,0,0.4,0.1,0.5
		c0,0.2,0.1,0.3,0.3,0.4c0.3,0.2,0.6,0.3,0.9,0.3H64c0.8,0,1.2-0.4,1.2-1.3V31.8z M65.6,34c0,0.2,0,0.5,0,0.6
		c-0.1,0.2-0.2,0.4-0.3,0.6c-0.3,0.3-0.7,0.5-1.2,0.5h-1.9c-0.5,0-0.9-0.1-1.2-0.4c-0.3-0.3-0.5-0.7-0.5-1.2v-1
		c0-1.1,0.6-1.6,1.6-1.7h3.1V31c0-0.3-0.1-0.7-0.3-0.9c-0.1-0.2-0.3-0.3-0.4-0.3c-0.2,0-0.4-0.1-0.6-0.1h-3.4v-0.4h3.2
		c0.3,0,0.6,0,0.8,0.1c0.1,0,0.2,0.1,0.3,0.1c0.1,0.1,0.2,0.2,0.3,0.3c0.3,0.4,0.4,0.8,0.4,1.3L65.6,34"/>
	<path id="path2509" class="st1" d="M69.1,29.7c-0.9,0-1.3,0.5-1.3,1.4v4.6h-0.4v-4.6c0-1.2,0.6-1.8,1.7-1.8h0.4v0.4H69.1"/>
	<path id="path2511" class="st1" d="M75.4,29.7h-2.9c-0.2,0-0.4,0-0.6,0.1c-0.2,0-0.4,0.1-0.5,0.3c-0.2,0.2-0.3,0.3-0.3,0.5
		C71,30.7,71,30.9,71,31.2v2.9c0,0.5,0.1,0.8,0.4,1c0.1,0.1,0.3,0.1,0.5,0.2c0.2,0,0.4,0.1,0.6,0.1h1.3c0.5,0,0.9-0.1,1.2-0.3
		c0.3-0.2,0.5-0.6,0.5-1.1L75.4,29.7L75.4,29.7z M75.7,33.9c0,1.2-0.7,1.8-1.9,1.8h-1.4c-0.3,0-0.6,0-0.8-0.1
		c-0.2-0.1-0.5-0.2-0.7-0.4s-0.3-0.4-0.3-0.6c-0.1-0.2-0.1-0.4-0.1-0.7v-2.7c0-1.2,0.6-1.8,1.9-1.8h2.9v-2.1h0.4V33.9"/>
	<path id="path2513" class="st2" d="M4.9,29.1C5,29.1,5.2,29,5.3,29c0.2-1.1,1.2-1.9,2.3-1.9s2.1,0.8,2.3,1.9
		c0.3,0.1,0.6,0.2,0.9,0.4c0-0.2,0-0.4,0-0.6c-0.1-1.6-1.5-2.9-3.2-2.9s-3.1,1.4-3.2,3c0,0.1,0,0.3,0,0.5
		C4.6,29.3,4.7,29.2,4.9,29.1"/>
	<path id="path2515" class="st2" d="M9.5,29.4H5.6c-0.2,0-0.4,0-0.6,0.1s-0.3,0.2-0.5,0.3c-0.2,0.3-0.4,0.7-0.4,1.2v3
		c0,0.5,0.1,1,0.4,1.2c0.1,0.1,0.3,0.2,0.5,0.3s0.4,0.1,0.6,0.1h3.8c1,0,1.5-0.5,1.5-1.6v-3C10.9,29.9,10.4,29.4,9.5,29.4"/>
</g>
</svg>
