<?xml version="1.0" encoding="utf-8"?>
<!-- Generator: Adobe Illustrator 28.2.0, SVG Export Plug-In . SVG Version: 6.00 Build 0)  -->
<svg version="1.1" id="Layer_1" xmlns="http://www.w3.org/2000/svg" xmlns:xlink="http://www.w3.org/1999/xlink" x="0px" y="0px"
	 viewBox="0 0 80 64" style="enable-background:new 0 0 80 64;" xml:space="preserve">
<style type="text/css">
	.st0{fill:#68BC45;}
	.st1{opacity:0.21;}
	.st2{fill:#0D0F0B;}
	.st3{fill:#FFFFFF;}
</style>
<rect x="0.1" y="0" class="st0" width="79.9" height="64.1"/>
<g class="st1">
	<path class="st2" d="M70,33.1c-0.8,0.4-1.7,0.5-2.6,0.4l0.5-2.7l0.1-0.5v-0.1h0.3c0.7-0.1,1.4,0.1,2,0.5
		C70.9,31.5,70.8,32.5,70,33.1L70,33.1 M22.7,37.3h-6.2c0.1-0.6,0.2-1.2,0.3-1.8c0-0.1,0-0.2,0.1-0.3c0,0,0,0,0.1,0h3.5
		c0.1,0,0.2,0,0.3,0c0-0.1,0.1-0.2,0.1-0.3l0.4-2.1h-3.8c0.1-0.6,0.2-1.2,0.3-1.8c0-0.1,0-0.3,0.1-0.3s0.1,0,0.2,0H24
		c-0.1,0.7-0.3,1.5-0.4,2.2c-0.2,1.2-0.5,2.4-0.7,3.6C22.8,36.7,22.7,37,22.7,37.3L22.7,37.3z M73.3,28.7c-1.2-0.7-2.7-1-4.1-0.9
		h-4.4h-0.2c0,0,0,0.2-0.1,0.3c-0.1,0.3-0.1,0.6-0.2,0.9c-0.2,0.9-0.3,1.9-0.5,2.8c-0.2,0.9-0.4,2.1-0.6,3.1
		c-0.1,0.7-0.3,1.4-0.4,2.1c0,0,0,0.2-0.1,0.3s-0.2,0-0.2,0h-5.9c0.1-0.6,0.2-1.2,0.3-1.8c0-0.1,0-0.2,0.1-0.3c0,0,0,0,0.1,0h3.6
		c0.1,0,0.1-0.3,0.1-0.4c0.1-0.7,0.2-1.3,0.4-2h-3.7c0.1-0.6,0.2-1.3,0.3-1.9v-0.2h0.1h3.6h0.1v-0.2c0,0,0.1-0.3,0.1-0.5
		c0.1-0.7,0.2-1.4,0.4-2.1h-7.6h-0.1c0,0.1-0.1,0.2-0.1,0.3l-0.1,0.7c-0.1,0.8-0.3,1.6-0.4,2.4l-0.9,5c0,0.2-0.1,0.3-0.1,0.5v0.1H50
		c0.2-1,0.4-2,0.6-3l0.9-4.9c0.1-0.4,0.1-0.7,0.2-1.1h-4V28c-0.1,0.4-0.2,0.8-0.2,1.2c-0.3,1.4-0.5,2.9-0.8,4.3
		c-0.2,1.1-0.4,2.2-0.6,3.2c0,0.1,0,0.1,0,0.2h-2.9c0.2-1,0.4-2,0.6-3l0.9-4.9c0.1-0.4,0.1-0.8,0.2-1.1h-3.8c-0.1,0-0.2,0-0.3,0
		s0,0.1-0.1,0.2c0,0.2-0.1,0.4-0.1,0.7c-0.1,0.8-0.3,1.5-0.4,2.3c-0.3,1.7-0.6,3.5-1,5.2c0,0.3-0.1,0.5-0.1,0.8c0,0.1,0,0.3-0.1,0.3
		s-0.3,0-0.3,0h-5.8c0.1-0.6,0.2-1.2,0.3-1.8c0-0.1,0-0.2,0.1-0.3c0,0,0,0,0.1,0H37c0.1,0,0.1-0.3,0.1-0.4c0.1-0.7,0.3-1.4,0.4-2
		h-3.7c0.1-0.6,0.2-1.3,0.3-1.9c0-0.1,0-0.2,0.1-0.2h0.1H38v-0.2c0,0,0.1-0.3,0.1-0.5c0.1-0.7,0.2-1.4,0.4-2.1H14.4
		c-0.1,0-0.1,0-0.1,0.2c-0.2,1.2-0.4,2.4-0.6,3.5c-0.2,1.2-0.4,2.4-0.7,3.6c0,0.1,0,0.1,0,0.2l-0.6-1.7c-0.4-1.1-0.8-2.2-1.2-3.3
		c-0.3-0.8-0.6-1.6-0.9-2.4c0-0.1,0-0.1-0.1-0.2h-0.1H6.3c-0.1,0-0.2,0-0.3,0c0,0,0,0.2-0.1,0.2c-0.1,0.3-0.1,0.5-0.2,0.8
		c-0.2,0.9-0.4,1.9-0.5,2.8C5,32.8,4.8,34,4.6,35.2S4.2,37.3,4,38.4c-0.1,0.6-0.2,1.2-0.3,1.7c0,0,0,0,0,0.1h3.8c0.1,0,0.1,0,0.2,0
		v-0.1l0.4-2.3c0.2-1.1,0.4-2.2,0.6-3.3C8.8,34,8.9,33.6,9,33.1c0-0.1,0-0.3,0-0.4s0-0.2,0-0.2c0.3,1,0.7,1.9,1,2.9
		c0.5,1.4,1,2.8,1.5,4.2c0.1,0.2,0.1,0.3,0.2,0.5v0.1L12,40h14h0.1c0,0,0-0.2,0-0.3c0.2-1.3,0.5-2.5,0.7-3.8c0.3-1.5,0.5-3,0.8-4.4
		c0-0.2,0.1-0.4,0.1-0.6c0-0.1,0-0.2,0.1-0.3c0-0.1,0.3,0,0.4,0h1.9l-0.6,3.2c-0.3,1.7-0.6,3.4-0.9,5.1c-0.1,0.4-0.1,0.8-0.2,1.1
		h37.7h0.1c0,0,0.1-0.2,0.1-0.3l0.4-2.5l0.5-2.7l0.1-0.5c0.4,1.4,0.8,2.8,1.3,4.2c0.1,0.4,0.2,0.8,0.3,1.1c0,0.1,0.1,0.3,0.1,0.4
		c0,0.1,0,0.1,0.1,0.2c0.1,0.1,0.3,0,0.4,0h3.6c-0.2-0.5-0.4-1.1-0.6-1.6c-0.3-0.9-0.7-1.7-1-2.6c-0.1-0.2-0.2-0.4-0.2-0.6
		c0.4-0.1,0.8-0.2,1.2-0.4c0.5-0.2,1-0.6,1.4-1.1s0.6-1.1,0.7-1.7c0.1-0.6,0-1.2-0.1-1.8C74.2,29.6,73.8,29.1,73.3,28.7 M76.6,38.6
		c0.3,0,1.1,0.1,1-0.4s-0.8-0.2-1-0.2C76.6,38.2,76.6,38.4,76.6,38.6z M76.4,39.7c0-0.6-0.1-1.3-0.1-1.9h0.9c0.3,0,0.6,0,0.7,0.4
		s-0.2,0.6-0.5,0.7c0.3,0.1,0.5,0.5,0.8,0.8h-0.3c-0.1,0-0.1-0.1-0.1-0.1c-0.1-0.2-0.3-0.4-0.5-0.6c-0.1-0.1-0.2-0.1-0.3-0.1h-0.2
		v0.2c0,0,0,0.2,0,0.4c0,0.1,0,0.2,0,0.2C76.6,39.7,76.5,39.7,76.4,39.7L76.4,39.7z M75.6,38.7c-0.1-0.8,0.6-1.5,1.4-1.6
		s1.5,0.6,1.6,1.4c0.1,0.8-0.6,1.5-1.4,1.6c-0.1,0-0.2,0-0.4,0C76.2,40,75.7,39.4,75.6,38.7 M77,36.9c-1,0.1-1.8,0.9-1.7,1.9
		c0.1,1,0.9,1.8,1.9,1.7l0,0c1-0.1,1.8-0.9,1.7-1.9C78.9,37.6,78,36.8,77,36.9L77,36.9"/>
</g>
<path class="st3" d="M69.2,31.9c-0.8,0.4-1.7,0.5-2.6,0.4l0.5-2.7l0.1-0.5V29c0.1,0,0.2,0,0.3,0c0.7-0.1,1.4,0.1,2,0.5
	C70,30.2,69.9,31.3,69.2,31.9C69.2,31.8,69.2,31.8,69.2,31.9L69.2,31.9 M21.8,36h-6.2c0.1-0.6,0.2-1.2,0.3-1.8c0-0.1,0-0.2,0.1-0.3
	h0.1c0.2,0,0.5,0,0.8,0h3l0,0c0-0.1,0-0.2,0.1-0.3l0.4-2h-3.8c0.1-0.6,0.2-1.2,0.3-1.8c0-0.1,0-0.3,0.1-0.3s0.1,0,0.2,0H23l-0.4,2.2
	c-0.2,1.2-0.4,2.4-0.7,3.6C21.9,35.5,21.9,35.7,21.8,36L21.8,36z M72.5,27.5c-1.2-0.7-2.7-1-4.1-0.9H64h-0.2c0,0,0,0.3-0.1,0.3
	c-0.1,0.3-0.1,0.6-0.2,0.9c-0.2,0.9-0.4,1.9-0.5,2.8s-0.4,2.1-0.6,3.1c-0.1,0.7-0.3,1.4-0.4,2.1c0,0,0,0.2,0,0.3s-0.2,0-0.2,0h-5.9
	c0.1-0.6,0.2-1.2,0.3-1.8c0-0.1,0-0.2,0.1-0.3c0,0,0,0,0.1,0H60c0.1,0,0.1-0.3,0.1-0.4c0.1-0.7,0.2-1.3,0.4-2h-3.7
	c0.1-0.6,0.2-1.2,0.3-1.9v-0.2h0.1h3.6h0.1v-0.2c0-0.2,0.1-0.3,0.1-0.5c0.1-0.7,0.3-1.4,0.4-2.1h-7.7c0,0.1,0,0.2,0,0.2l-0.1,0.7
	c-0.2,0.8-0.3,1.6-0.4,2.4l-0.9,5c0,0.2-0.1,0.3-0.1,0.5v0.1h-2.9c0.2-1,0.4-2,0.6-3l0.9-4.9c0.1-0.4,0.1-0.7,0.2-1.1h-4v0.1
	c-0.1,0.4-0.2,0.8-0.2,1.2c-0.3,1.4-0.5,2.8-0.8,4.2c-0.2,1.1-0.4,2.2-0.6,3.3c0,0.1,0,0.1,0,0.2h-2.9c0.2-1,0.4-2,0.6-3l0.9-4.8
	c0.1-0.4,0.1-0.8,0.2-1.1h-3.8h-0.2c0,0,0,0.1-0.1,0.2c0,0.2-0.1,0.4-0.1,0.7c-0.1,0.8-0.3,1.5-0.4,2.3c-0.3,1.7-0.7,3.5-1,5.2
	c0,0.3-0.1,0.5-0.1,0.8c0,0.1,0,0.3-0.1,0.3s-0.3,0-0.3,0H32c0.1-0.6,0.2-1.2,0.3-1.8c0-0.1,0-0.2,0.1-0.3l0,0H36
	c0.1,0,0.1-0.3,0.1-0.4c0.1-0.7,0.2-1.3,0.4-2h-3.7c0.1-0.6,0.2-1.3,0.3-1.9c0-0.1,0-0.2,0-0.2h0.1h3.6h0.1c0,0,0-0.1,0-0.2
	s0.1-0.3,0.1-0.5c0.1-0.7,0.2-1.4,0.4-2.1h-24c-0.1,0-0.1,0-0.1,0.2c-0.2,1.2-0.4,2.4-0.6,3.5S12.3,32.8,12,34v0.2l-0.6-1.7
	c-0.4-1.1-0.8-2.2-1.2-3.2c-0.3-0.8-0.6-1.6-0.9-2.4c0-0.1,0-0.1-0.1-0.2H5.5c-0.1,0-0.2,0-0.3,0c0,0,0,0.2-0.1,0.2
	C5,27.2,5,27.5,4.9,27.8c-0.2,0.9-0.3,1.9-0.5,2.8C4.2,31.7,4,32.9,3.8,34s-0.4,1.9-0.6,3c-0.1,0.6-0.2,1.1-0.3,1.7c0,0,0,0,0,0.1
	h3.8c0.1,0,0.1,0,0.2,0v-0.1l0.4-2.3c0.2-1.1,0.4-2.2,0.6-3.3c0.1-0.4,0.2-0.9,0.2-1.3c0-0.1,0-0.3,0.1-0.4c0-0.1,0-0.1,0-0.2
	c0.3,1,0.6,1.9,1,2.8c0.5,1.4,1,2.8,1.5,4.2c0.1,0.2,0.1,0.3,0.2,0.5s0,0.1,0,0.1h0.2h14.2c0,0,0-0.2,0-0.3c0.2-1.3,0.5-2.5,0.7-3.8
	c0.3-1.5,0.5-3,0.8-4.5c0-0.2,0.1-0.4,0.1-0.6c0-0.1,0-0.2,0.1-0.3c0-0.1,0.3,0,0.4,0h1.9l-0.6,3.2c-0.3,1.7-0.6,3.4-0.9,5.1
	c-0.1,0.4-0.1,0.8-0.2,1.2h37.7c0,0,0.1,0,0.2,0s0-0.2,0.1-0.2l0.5-2.5l0.5-2.7l0.1-0.5c0.4,1.4,0.8,2.8,1.3,4.2
	c0.1,0.4,0.2,0.8,0.3,1.1c0,0.1,0.1,0.2,0.1,0.4c0,0.1,0,0.1,0.1,0.2c0.1,0.1,0.3,0,0.4,0h3.6c-0.2-0.5-0.4-1.1-0.6-1.7
	c-0.3-0.9-0.7-1.8-1-2.6c-0.1-0.2-0.2-0.4-0.2-0.6c0.4-0.1,0.8-0.2,1.2-0.3c0.5-0.2,1-0.6,1.4-1.1s0.6-1.1,0.7-1.7s0-1.3-0.1-1.9
	C73.4,28.3,73,27.9,72.5,27.5"/>
</svg>
