<?xml version="1.0" encoding="utf-8"?>
<!-- Generator: Adobe Illustrator 28.2.0, SVG Export Plug-In . SVG Version: 6.00 Build 0)  -->
<svg version="1.1" id="Capa_1" xmlns="http://www.w3.org/2000/svg" xmlns:xlink="http://www.w3.org/1999/xlink" x="0px" y="0px"
	 viewBox="0 0 512 341.3" style="enable-background:new 0 0 512 341.3;" xml:space="preserve">
<style type="text/css">
	.st0{fill:#F0F0F0;}
	.st1{fill:#D80027;}
	.st2{fill:#0052B4;}
</style>
<rect y="0" class="st0" width="512" height="341.3"/>
<polygon class="st1" points="288,0 224,0 224,138.7 0,138.7 0,202.7 224,202.7 224,341.3 288,341.3 288,202.7 512,202.7 512,138.7 
	288,138.7 "/>
<g>
	<polygon class="st2" points="393.8,230 512,295.7 512,230 	"/>
	<polygon class="st2" points="311.7,230 512,341.3 512,309.9 368.3,230 	"/>
	<polygon class="st2" points="458.6,341.3 311.7,259.7 311.7,341.3 	"/>
</g>
<polygon class="st0" points="311.7,230 512,341.3 512,309.9 368.3,230 "/>
<polygon class="st1" points="311.7,230 512,341.3 512,309.9 368.3,230 "/>
<g>
	<polygon class="st2" points="90.3,230 0,280.2 0,230 	"/>
	<polygon class="st2" points="200.3,244.2 200.3,341.3 25.5,341.3 	"/>
</g>
<polygon class="st1" points="143.7,230 0,309.9 0,341.3 0,341.3 200.3,230 "/>
<g>
	<polygon class="st2" points="118.2,111.3 0,45.6 0,111.3 	"/>
	<polygon class="st2" points="200.3,111.3 0,0 0,31.5 143.7,111.3 	"/>
	<polygon class="st2" points="53.4,0 200.3,81.7 200.3,0 	"/>
</g>
<polygon class="st0" points="200.3,111.3 0,0 0,31.5 143.7,111.3 "/>
<polygon class="st1" points="200.3,111.3 0,0 0,31.5 143.7,111.3 "/>
<g>
	<polygon class="st2" points="421.7,111.3 512,61.1 512,111.3 	"/>
	<polygon class="st2" points="311.7,97.2 311.7,0 486.5,0 	"/>
</g>
<polygon class="st1" points="368.3,111.3 512,31.5 512,0 512,0 311.7,111.3 "/>
</svg>
